<?xml version="1.0" encoding="UTF-8" standalone="no"?>
<!DOCTYPE svg PUBLIC "-//W3C//DTD SVG 1.1//EN" "http://www.w3.org/Graphics/SVG/1.1/DTD/svg11.dtd">
<svg width="100%" height="100%" viewBox="0 0 907 514" version="1.1" xmlns="http://www.w3.org/2000/svg" xmlns:xlink="http://www.w3.org/1999/xlink" xml:space="preserve" xmlns:serif="http://www.serif.com/" style="fill-rule:evenodd;clip-rule:evenodd;stroke-linejoin:round;stroke-miterlimit:2;">
    <g id="Artboard1" transform="matrix(1,0,0,1,-7.98994,-13.1618)">
        <rect x="7.99" y="13.162" width="906.834" height="513.674" style="fill:none;"/>
        <clipPath id="_clip1">
            <rect x="7.99" y="13.162" width="906.834" height="513.674"/>
        </clipPath>
        <g clip-path="url(#_clip1)">
            <g transform="matrix(1.42857,0,0,1.40059,-649.041,-423.67)">
                <path d="M658.663,454.292C655.365,453.158 652.156,452.158 649.07,451.334C611.918,441.254 608.03,456.086 608.75,467.894C608.75,467.894 607.886,473.366 603.422,459.398C596.366,436.79 611.918,431.03 643.31,439.67L645.758,440.39C652.094,434.486 659.294,423.398 666.638,410.15C647.342,407.99 626.894,398.918 623.726,377.75C619.982,352.694 652.238,345.782 670.526,345.782C673.982,345.782 685.934,347.078 697.598,349.67L698.462,347.942C714.158,317.846 726.974,315.83 736.19,316.406C741.95,316.982 744.254,319.862 744.254,319.862C744.398,319.862 744.542,320.006 744.686,320.006L744.542,320.15C792.062,333.974 735.47,405.11 682.19,410.294C671.102,427.286 658.718,441.254 651.086,442.118C675.854,450.47 711.566,468.038 735.182,471.782C757.843,475.319 764.187,462.922 765.893,454.191C765.879,454.199 765.867,454.207 765.854,454.214C764.558,454.79 762.974,453.926 762.254,452.774C753.614,448.886 753.182,443.99 753.182,443.99C757.358,431.174 769.454,407.27 779.39,388.118C763.982,407.846 742.526,434.054 740.366,434.054C739.646,434.054 739.07,433.766 738.782,433.334C736.046,431.894 730.286,428.006 733.31,420.374C737.342,410.294 759.23,362.918 774.206,359.75C781.838,358.166 787.166,363.494 790.19,367.814L791.198,366.23C793.358,362.198 794.798,359.75 794.798,359.75C797.822,355.862 803.87,360.614 808.334,365.078C801.998,368.102 775.79,418.79 766.142,445.43C771.47,440.534 779.246,430.022 786.878,418.934C794.491,408 803.965,393.474 808.526,386.48C813.589,377.217 817.55,370.118 817.55,370.118C822.446,361.19 822.878,357.158 822.446,355.862C831.374,359.03 833.39,364.646 833.39,364.646C831.086,368.966 824.03,383.078 816.686,397.91C829.79,381.926 844.622,364.79 851.39,360.902C851.822,360.182 851.966,359.75 851.966,359.75C854.99,355.862 861.038,360.614 865.502,365.078C859.454,367.958 829.79,426.71 825.326,443.414C830.222,438.95 837.278,429.878 844.766,418.934C851.933,408.639 860.751,395.161 865.564,387.783C873.327,373.896 882.717,360.848 890.99,359.75C897.614,358.886 902.51,362.63 905.678,366.23C906.542,367.526 907.982,367.238 908.846,366.086C923.822,337.718 937.358,313.382 937.358,313.382C940.382,309.638 946.43,314.246 951.038,318.71C944.702,321.734 897.758,409.574 885.518,438.086C889.262,433.478 893.294,428.15 896.606,423.83L897.182,423.974C891.566,434.486 884.078,451.478 881.198,459.398C881.198,459.398 880.91,459.254 880.478,459.11C868.382,455.078 867.806,448.886 867.806,448.886C870.686,440.39 880.334,420.374 891.854,398.198C892.43,397.046 891.134,395.75 890.414,396.902C875.726,415.046 858.158,435.35 856.286,435.35C854.558,435.35 853.982,433.766 853.838,432.326C851.102,430.31 847.502,426.566 850.094,420.374C850.964,418.2 852.604,414.244 854.805,409.354C851.815,413.946 848.456,419.042 845.054,424.118C835.262,438.95 826.478,451.334 824.75,452.198C818.846,452.198 812.654,450.038 811.502,442.838C810.206,434.918 832.382,394.886 844.622,373.43L843.614,373.43C831.374,384.374 815.822,404.102 805.742,419.942C800.702,430.31 796.958,437.942 796.958,437.942C791.918,435.782 786.158,430.598 788.894,423.974C790.046,421.465 791.694,418.146 793.626,414.385C791.549,417.543 789.367,420.835 787.166,424.118C779.62,435.548 771.988,446.722 768.159,451.642C769.018,466.762 764.26,490.356 741.806,486.902C732.351,485.419 719.396,480.117 705.341,473.921C702.773,469.181 698.017,464.257 690.541,462.069C681.071,454.365 667.585,454.208 661.44,454.208C660.524,454.208 659.598,454.236 658.663,454.292ZM862.334,423.398C874.574,412.022 894.014,387.686 903.806,374.006C904.814,372.854 904.382,371.126 903.23,370.262C900.638,368.534 897.902,368.534 895.742,369.398C889.262,371.99 870.254,407.846 862.334,423.398ZM780.11,368.102C773.774,370.694 754.91,405.83 746.27,422.102C758.798,410.006 779.39,383.366 788.75,369.83C785.87,367.238 782.558,367.094 780.11,368.102ZM722.222,362.63C718.91,360.47 714.734,358.742 709.982,357.302C705.374,366.374 700.622,376.31 696.014,385.814C693.566,390.854 690.686,396.038 687.806,401.078C733.166,386.966 762.254,331.382 741.518,323.894L741.374,323.894C730.574,323.894 721.07,336.854 711.854,353.702C717.902,356.15 722.222,359.03 722.222,362.342L722.222,362.63ZM633.23,382.646C635.534,398.054 653.822,404.39 666.926,404.39L669.662,404.39C678.302,388.262 687.23,369.974 695.15,354.278C690.11,353.702 685.07,353.27 680.462,353.27C652.814,353.27 630.782,366.806 633.23,382.646Z" style="fill:rgb(242,13,13);"/>
            </g>
            <g transform="matrix(0.888124,0,0,0.870731,-174.607,-94.1938)">
                <path d="M717.233,443.648C720.545,446.672 727.457,446.96 731.345,445.088C742.865,439.76 754.529,423.92 762.449,405.2C770.945,385.328 770.657,367.616 754.529,367.472C751.505,366.176 748.193,365.744 745.745,366.896C734.225,372.224 723.281,387.056 715.361,405.776C707.873,423.2 706.577,439.616 717.233,443.648ZM722.561,440.192C716.945,440.192 719.681,425.504 724.001,414.704C731.201,396.848 744.593,376.4 752.801,372.08L754.097,372.08C759.713,372.08 757.409,386.48 753.089,397.28C745.745,415.136 732.209,435.872 723.857,440.192L722.561,440.192Z" style="fill:rgb(242,13,13);fill-rule:nonzero;"/>
                <path d="M757.841,434.864C756.401,439.184 763.745,444.368 765.617,445.52C765.473,445.088 765.761,443.648 767.633,439.472C769.937,433.856 773.393,425.792 777.281,417.296C780.305,417.008 783.905,417.008 787.217,417.008C791.825,417.152 796.001,417.728 797.873,418.736C797.153,415.856 795.425,409.808 791.825,408.944C789.521,408.224 785.201,408.368 781.169,408.8L782.033,407.072C788.513,393.536 793.985,383.168 797.585,375.248C804.497,374.096 815.009,374.528 818.465,376.4C818.177,373.376 817.025,367.472 813.281,366.608C808.961,365.312 791.969,366.752 787.505,367.616C787.361,367.616 787.217,367.616 787.217,367.472C787.361,368.192 786.353,372.512 784.769,376.256L770.513,407.504L757.841,434.864Z" style="fill:rgb(242,13,13);fill-rule:nonzero;"/>
                <path d="M828.977,434.864C827.393,439.184 834.881,444.368 836.753,445.52C836.609,445.088 836.897,443.648 838.769,439.472C842.081,431.552 847.553,419.168 853.169,407.072C859.793,393.392 862.961,387.776 866.561,379.856C866.705,378.848 866.273,377.84 865.409,376.976C874.913,377.12 883.553,377.696 885.425,378.56C884.993,375.248 883.121,368.624 879.521,367.76C876.785,367.04 864.977,367.04 853.745,367.472C853.457,367.472 856.481,364.304 856.049,364.448C851.441,367.04 844.529,367.904 842.225,368.192C841.505,368.192 837.041,374.24 838.625,378.128C841.217,377.408 847.841,376.976 855.041,376.976C854.609,378.272 854.177,379.712 853.601,381.152C849.713,389.648 847.697,394.4 841.649,407.504L828.977,434.864Z" style="fill:rgb(242,13,13);fill-rule:nonzero;"/>
                <path d="M897.377,434.864C895.937,439.184 903.857,444.368 905.729,445.52C905.585,445.088 905.873,443.792 907.745,439.472C909.761,434.432 912.209,428.24 914.945,421.76L917.969,422.48C917.825,421.184 917.249,419.6 916.529,418.016C923.441,401.6 931.649,383.312 937.553,372.8C938.417,368.48 929.345,366.464 927.329,365.456C927.473,366.176 926.465,370.496 924.881,374.24C920.993,382.736 916.097,394.4 910.049,407.504C909.185,409.232 908.609,410.816 907.889,412.4C902.705,412.112 893.489,412.112 885.281,412.256C891.617,397.424 898.673,382.16 903.857,372.8C904.721,368.48 895.649,366.464 893.633,365.456C893.777,366.176 892.769,370.496 891.185,374.24C887.297,382.736 882.401,394.4 876.353,407.504L873.905,412.688C872.753,412.832 871.889,412.976 871.313,412.976C870.593,412.976 868.721,417.296 870.161,421.04C868.433,424.496 866.417,428.96 863.681,434.864C862.241,439.184 870.161,444.368 872.033,445.52C871.889,445.088 872.177,443.792 874.049,439.472L881.825,420.176C888.737,420.176 896.801,420.32 903.857,420.752C902.273,424.352 900.257,428.816 897.377,434.864Z" style="fill:rgb(242,13,13);fill-rule:nonzero;"/>
                <path d="M920.561,434.864C919.265,438.608 924.449,442.496 927.185,444.368C927.329,444.368 927.473,444.368 927.617,444.224C935.393,442.64 947.633,443.648 951.953,445.664C951.521,442.496 951.233,435.296 947.489,434.432C944.609,433.856 938.273,434.144 932.369,434.72C934.529,429.68 937.121,423.632 940.001,417.296C947.345,416.576 957.425,417.152 960.593,418.736C958.577,415.856 958.577,409.376 954.977,408.368C952.673,407.648 948.209,407.792 944.177,408.224L944.753,407.072C951.233,393.536 956.705,383.168 960.305,375.248C967.217,374.096 977.729,374.528 981.185,376.4C980.897,373.376 979.745,367.472 976.001,366.608C971.681,365.312 954.689,366.752 950.225,367.616C950.081,367.616 949.937,367.616 949.937,367.472C950.081,368.192 949.073,372.512 947.489,376.256L933.233,407.504L920.561,434.864Z" style="fill:rgb(242,13,13);fill-rule:nonzero;"/>
            </g>
            <g transform="matrix(2.15377,0,0,2.11159,-1347.81,-607.088)">
                <path d="M793.404,441.867C786.544,454.096 732.732,523.624 702.396,536.187C694.281,539.549 683.676,532.875 678.924,524.523C669.852,518.331 666.54,506.091 667.836,491.547C668.124,486.363 669.708,481.179 671.724,475.563C669.708,475.707 667.548,475.707 665.82,475.707C656.028,475.707 648.54,473.115 641.484,466.491C632.7,462.603 629.82,453.963 629.964,447.051C633.132,431.067 659.772,416.379 690.876,416.379C693.756,416.379 696.636,416.523 699.66,416.667L701.532,416.523C702.108,416.523 702.828,416.955 703.404,416.955C704.7,417.243 706.86,417.819 706.716,418.107C706.428,418.395 705.42,418.539 703.98,418.827C665.532,424.299 642.78,439.419 640.476,452.955C638.172,468.507 657.324,467.499 663.948,467.499C667.836,467.499 671.868,467.499 675.468,467.211C692.892,431.643 735.084,390.027 763.164,390.027C767.052,390.027 775.692,390.027 781.596,395.067C789.66,397.227 792.54,404.715 791.964,407.595C789.084,426.027 739.548,461.883 691.74,472.683L689.292,473.259C685.116,482.043 681.516,492.555 680.796,500.763C679.5,513.867 680.508,525.387 695.772,525.387C711.9,525.387 773.577,469.009 792.108,438.123C791.676,436.683 791.1,435.243 790.524,433.803C787.356,426.315 790.092,418.395 795.564,416.811C801.324,416.811 806.652,423.579 806.652,423.579C803.34,425.163 799.164,431.499 797.724,434.667C799.596,437.403 802.044,439.851 804.636,446.187C808.092,454.827 801.468,464.187 801.468,464.187C792.252,481.611 779.004,502.059 771.372,522.507C776.556,517.611 784.476,507.243 791.964,496.155C798.061,487.398 805.353,476.337 810.357,468.687C818.648,453.782 828.956,438.711 837.18,436.971C844.812,435.387 850.14,440.715 853.164,445.035L854.172,443.451C856.332,439.419 857.772,436.971 857.772,436.971C860.796,433.083 866.844,437.835 871.308,442.299C864.972,445.323 838.764,496.011 829.116,522.651C834.444,517.755 842.22,507.243 849.852,496.155C857.464,485.222 866.939,470.696 871.499,463.702C876.563,454.439 880.524,447.339 880.524,447.339C885.42,438.411 885.852,434.379 885.42,433.083C894.348,436.251 896.364,441.867 896.364,441.867C893.916,446.331 885.996,462.171 878.22,477.867C891.756,461.307 907.74,442.587 915.084,438.267C915.372,437.547 915.804,436.971 915.804,436.971C918.828,433.083 924.876,437.835 929.34,442.299C922.86,445.323 898.956,492.555 891.18,514.011L890.748,515.595C894.636,509.691 899.82,502.203 904.716,497.019L905.292,497.307C899.532,507.819 890.316,529.131 888.876,529.851C877.5,526.827 874.476,519.771 875.34,520.059C880.668,503.787 897.516,470.955 907.74,451.803L906.156,451.803C892.332,464.619 874.764,487.947 865.548,503.787C862.236,510.555 859.932,515.163 859.932,515.163C856.188,514.011 848.844,508.395 851.868,501.195C853.02,498.687 854.668,495.368 856.599,491.606C854.523,494.765 852.341,498.057 850.14,501.339C840.348,516.171 830.412,530.571 828.828,531.435C827.532,532.011 825.948,531.147 825.228,529.995C816.588,526.107 816.156,521.211 816.156,521.211C820.332,508.395 832.428,484.491 842.364,465.339C826.956,485.067 805.5,511.275 803.34,511.275C802.62,511.275 802.044,510.987 801.756,510.555C799.02,509.115 793.26,505.227 796.284,497.595C796.886,496.092 797.884,493.758 799.198,490.865C796.978,494.248 794.625,497.799 792.252,501.339C782.46,516.171 772.524,530.571 770.94,531.435C769.644,532.011 768.06,531.147 767.34,529.995C758.7,526.107 758.268,521.211 758.268,521.211C764.028,504.651 781.596,478.443 791.1,459.147C794.844,451.803 794.7,446.619 793.404,441.867ZM843.084,445.323C836.748,447.915 817.884,483.051 809.244,499.323C821.772,487.227 842.364,460.587 851.724,447.051C848.844,444.459 845.532,444.315 843.084,445.323ZM696.204,463.611C744.012,451.947 776.124,416.523 779.58,403.851C779.868,399.243 778.716,396.219 773.388,396.219C753.516,396.219 715.356,429.339 694.476,464.043L696.204,463.611ZM932.686,486.394C932.686,486.394 927.139,481.465 927.472,481.089C927.537,480.184 929.797,479.568 936.013,479.622C948.918,474.304 968.385,447.458 968.013,439.858C949.133,440.442 923.818,479.1 919.813,499.67C919.133,502.48 918.418,505.398 918.716,508.274C920.126,521.889 921.766,520.529 932.686,520.059C951.309,519.259 974.305,503.623 985.816,490.853C980.401,507.236 960.604,528.277 943.515,531.435C937.287,532.587 925.715,528.995 921.101,523.448C913.234,519.509 911.518,513.528 911.232,506.088C909.626,480.829 926.988,456.557 946.47,442.227C950.369,439.358 966.572,428.649 970.73,438.545C973.59,439.275 976.737,442.192 976.165,445.694C974.484,458.269 959.352,473.365 945.156,480.009C976.805,482.099 1010.93,480.73 1039.41,465.116C1042.14,465.908 1025.17,477.821 1020.25,479.429C1005.84,484.139 992.271,485.264 978.065,486.394C963.471,487.555 932.686,486.394 932.686,486.394Z" style="fill:rgb(242,13,13);"/>
            </g>
        </g>
    </g>
</svg>
